<svg id="Capa_1" enable-background="new 0 0 512.003 512.003" height="512" viewBox="0 0 512.003 512.003" width="512" xmlns="http://www.w3.org/2000/svg"><g><g><path d="m119.43 495.551c-4.121 0-7.903-2.616-9.36-6.472-1.49-3.947-.266-8.586 3.01-11.255 3.291-2.681 8.012-2.986 11.623-.759 3.4 2.098 5.252 6.181 4.588 10.121-.805 4.762-5.022 8.365-9.861 8.365z"/><path d="m501.924 337.886c-7.742-7.742-18.035-12.006-28.983-12.006-4.759 0-9.395.806-13.75 2.353-.971-.874-1.934-1.731-2.303-2.033-16.348-13.371-39.948-12.184-54.896 2.763l-47.238 47.239c-3.951 3.948-20.074 13.219-24.764 13.806h-28.836c-5.057 0-7.045-3.852-7.534-5.033-.414-1-1.422-4.112.447-7.214l22.839-6.615c12.348-3.577 21.879-13.101 25.496-25.478 3.544-12.129.726-24.995-7.548-34.423-.386-.439-.782-.875-1.189-1.305-6.628-6.999-18.826-7.728-42.096-2.518-16.396 3.671-35.341 9.803-48.347 14.301-28.237 9.766-50.137 31.487-59.852 58.921h-10.155v-7.843c0-5.523-4.477-10-10-10h-153.215c-5.523 0-10 4.477-10 10v112.751c0 5.523 4.477 10 10 10h64.036c5.523 0 10-4.477 10-10s-4.477-10-10-10h-54.036v-92.751h133.213v102.751c0 5.523 4.477 10 10 10s10-4.477 10-10v-7.843h29.888c29.405 10.028 59.783 15.079 90.573 15.079 6.758-.001 13.539-.244 20.33-.731 38.15-2.738 74.661-13.032 108.518-30.596 8.11-4.207 11.027-6.221 12.724-7.86l61.949-57.5c.091-.084.18-.17.267-.257 7.587-7.583 12.74-17.638 14.14-27.586 1.644-11.698-1.792-22.485-9.678-30.372zm-85.791 5.22c6.953-6.954 17.561-8.094 25.716-3.11l-45.132 45.131c-3.147 3.148-7.333 4.882-11.784 4.882h-15.703zm5.143 96.185c.042-.042.088-.089.14-.137-.047.046-.094.091-.14.137zm70.52-73.816c-.8 5.685-3.841 11.545-8.353 16.104l-61.9 57.455c-.01.009-.019.017-.027.026-.383.284-2.181 1.527-8.203 4.651-62.792 32.573-137.364 37.961-204.586 14.788l-.694-.24c-1.049-.362-2.15-.546-3.26-.546h-31.56v-57.065h17.526c4.539 0 8.509-3.057 9.668-7.446 6.464-24.468 24.913-44.122 49.35-52.574 53.458-18.487 67.521-16.861 69.994-16.267.024.028.05.057.074.085 3.785 4.313 5.017 10.005 3.377 15.614-1.688 5.774-6.122 10.214-11.863 11.877l-25.806 7.474c-1.62.47-3.096 1.341-4.289 2.535-8.206 8.207-10.545 19.964-6.104 30.685 4.44 10.72 14.408 17.379 26.012 17.379h83.781c9.794 0 19.001-3.814 25.927-10.739l47.242-47.242c3.964-3.964 9.233-6.147 14.839-6.147 5.605 0 10.877 2.184 14.841 6.147 3.435 3.435 4.785 7.959 4.014 13.446z"/><path d="m389.298 141.073c-.49-.173-.969-.343-1.438-.51v-15.831c.146.153.274.307.381.459 3.173 4.521 9.41 5.614 13.93 2.441 4.521-3.172 5.614-9.409 2.441-13.93-3.385-4.824-9.23-8.936-16.793-10.73-.456-5.101-4.741-9.099-9.959-9.099-5.438 0-9.863 4.341-9.997 9.748-.398.109-.799.224-1.201.345-10.013 3.017-17.569 12.706-18.374 23.563-.802 10.811 4.91 20.183 15.28 25.073 1.043.492 2.495 1.111 4.292 1.833v20.936c-1.585-.837-2.954-1.878-3.962-3.13-3.464-4.302-9.762-4.979-14.061-1.515-4.302 3.464-4.979 9.76-1.516 14.061 5.103 6.335 12.359 9.994 19.629 11.8.66 4.884 4.845 8.649 9.909 8.649 4.816 0 8.837-3.405 9.787-7.94 13.11-2.517 22.286-11.376 23.812-23.388 1.79-14.088-7.323-27.59-22.16-32.835zm2.32 30.316c-.312 2.46-1.862 4.012-3.758 4.989v-13.436c2.865 2.537 4.097 5.781 3.758 8.447z"/><path d="m378.892 238.14c-48.846 0-88.584-39.739-88.584-88.584 0-48.846 39.738-88.585 88.584-88.585s88.585 39.739 88.585 88.585c0 48.845-39.74 88.584-88.585 88.584zm0-157.169c-37.817 0-68.584 30.767-68.584 68.585s30.767 68.584 68.584 68.584c37.818 0 68.585-30.767 68.585-68.584s-30.767-68.585-68.585-68.585z"/><path d="m378.893 282.663c-73.397 0-133.108-59.712-133.108-133.108s59.712-133.107 133.108-133.107c73.395 0 133.107 59.712 133.107 133.107 0 73.396-59.712 133.108-133.107 133.108zm0-246.215c-62.368 0-113.108 50.74-113.108 113.107s50.74 113.108 113.108 113.108c62.367 0 113.107-50.74 113.107-113.108s-50.74-113.107-113.107-113.107z"/></g></g></svg>